<mxfile host="app.diagrams.net" modified="2022-09-05T16:58:48.707Z" agent="5.0 (Windows)" etag="bs30nckpKROW2JHGg3AI" version="20.2.8" type="github">
  <diagram id="Vsc05S_H__jze0gzCYs1" name="Pagina-1">
    <mxGraphModel dx="1422" dy="-118" grid="1" gridSize="10" guides="1" tooltips="1" connect="1" arrows="1" fold="1" page="1" pageScale="1" pageWidth="1169" pageHeight="827" math="0" shadow="0">
      <root>
        <mxCell id="0" />
        <mxCell id="1" parent="0" />
        <mxCell id="NdF2GG-0BhVtw3e28iFV-1" value="" style="shape=umlActor;verticalLabelPosition=bottom;verticalAlign=top;html=1;outlineConnect=0;fillStyle=auto;fontFamily=Verdana;fontSize=10;fontColor=#000000;strokeColor=#FF1493;strokeWidth=2;fillColor=#FFC0CB;gradientColor=none;" vertex="1" parent="1">
          <mxGeometry x="360.86000000000007" y="1342" width="15.01" height="20" as="geometry" />
        </mxCell>
        <mxCell id="NdF2GG-0BhVtw3e28iFV-2" value="&lt;div align=&quot;center&quot;&gt;&lt;br&gt;&lt;/div&gt;" style="shape=umlActor;verticalLabelPosition=bottom;verticalAlign=top;html=1;outlineConnect=0;fillStyle=auto;fontFamily=Verdana;fontSize=10;fontColor=#000000;strokeColor=#00BFFF;strokeWidth=2;fillColor=#87CEFA;gradientColor=none;align=center;" vertex="1" parent="1">
          <mxGeometry x="383.52000000000004" y="1342" width="14.69" height="20" as="geometry" />
        </mxCell>
        <mxCell id="NdF2GG-0BhVtw3e28iFV-3" value="" style="line;strokeWidth=2;direction=south;html=1;fillStyle=auto;fontFamily=Verdana;fontSize=10;fillColor=#87CEFA;gradientColor=none;fontColor=#000000;" vertex="1" parent="1">
          <mxGeometry x="227.8299999999999" y="1279" width="10" height="21" as="geometry" />
        </mxCell>
        <mxCell id="NdF2GG-0BhVtw3e28iFV-4" value="" style="strokeWidth=2;html=1;shape=mxgraph.flowchart.annotation_2;align=left;labelPosition=right;pointerEvents=1;fillStyle=auto;fontFamily=Verdana;fontSize=10;fillColor=#87CEFA;gradientColor=none;rotation=90;" vertex="1" parent="1">
          <mxGeometry x="312" y="1328" width="19.52" height="160" as="geometry" />
        </mxCell>
        <mxCell id="NdF2GG-0BhVtw3e28iFV-5" value="..." style="text;html=1;strokeColor=none;fillColor=none;align=center;verticalAlign=middle;whiteSpace=wrap;rounded=0;fillStyle=auto;fontFamily=Verdana;fontSize=8;fontColor=#000000;rotation=-90;" vertex="1" parent="1">
          <mxGeometry x="172" y="1450" width="40" height="18" as="geometry" />
        </mxCell>
        <mxCell id="NdF2GG-0BhVtw3e28iFV-6" value="&lt;div style=&quot;font-size: 12px;&quot; align=&quot;left&quot;&gt;&lt;font style=&quot;font-size: 12px;&quot; face=&quot;Verdana&quot;&gt;&lt;b&gt;†&lt;span style=&quot;&quot;&gt; &lt;/span&gt;&lt;/b&gt;&lt;/font&gt;&lt;font style=&quot;font-size: 12px;&quot;&gt;&lt;span style=&quot;&quot;&gt; &lt;/span&gt;&lt;span style=&quot;white-space: pre;&quot;&gt; &lt;/span&gt;Overleden&lt;/font&gt;&lt;/div&gt;&lt;div style=&quot;font-size: 12px;&quot; align=&quot;left&quot;&gt;&lt;font style=&quot;font-size: 12px;&quot;&gt;&lt;span lang=&quot;EN-US&quot;&gt;⚭&lt;span style=&quot;&quot;&gt; &lt;/span&gt;&lt;/span&gt;&lt;span style=&quot;white-space: pre;&quot;&gt; &lt;/span&gt;Gehuwd&lt;/font&gt;&lt;/div&gt;&lt;div style=&quot;font-size: 12px;&quot; align=&quot;left&quot;&gt;&lt;font style=&quot;font-size: 12px;&quot;&gt;&lt;font style=&quot;font-size: 12px;&quot;&gt;&lt;span lang=&quot;EN-US&quot;&gt;&lt;span lang=&quot;EN-US&quot;&gt;⚮ &lt;/span&gt;&lt;/span&gt;&lt;/font&gt;&lt;span style=&quot;white-space: pre;&quot;&gt; &lt;/span&gt;Gescheiden&lt;br&gt;&lt;/font&gt;&lt;/div&gt;" style="text;html=1;strokeColor=none;fillColor=none;align=left;verticalAlign=middle;whiteSpace=wrap;rounded=0;fillStyle=auto;fontFamily=Verdana;fontSize=8;fontColor=#000000;" vertex="1" parent="1">
          <mxGeometry x="13.01" y="886" width="110.64" height="60" as="geometry" />
        </mxCell>
        <mxCell id="NdF2GG-0BhVtw3e28iFV-7" value="&lt;div&gt;&lt;font style=&quot;font-size: 10px;&quot;&gt;♀ &lt;b&gt;..&lt;br&gt;&lt;/b&gt;&lt;/font&gt;&lt;/div&gt;&lt;div&gt;&lt;font style=&quot;font-size: 10px;&quot; size=&quot;3&quot;&gt;( - &lt;/font&gt;&lt;font style=&quot;font-size: 10px;&quot; size=&quot;3&quot;&gt;&lt;font style=&quot;font-size: 10px;&quot; face=&quot;Verdana&quot;&gt;&lt;font style=&quot;font-size: 10px;&quot; size=&quot;3&quot;&gt;&lt;b&gt;†&lt;/b&gt; ??&lt;/font&gt;&lt;/font&gt;)&lt;/font&gt;&lt;font size=&quot;3&quot;&gt;&lt;i&gt;&lt;br&gt;&lt;/i&gt;&lt;/font&gt;&lt;/div&gt;" style="rounded=1;whiteSpace=wrap;html=1;fillColor=#FFC0CB;strokeColor=#FF1493;fillStyle=auto;fontFamily=Verdana;fontSize=10;fontColor=#000000;" vertex="1" parent="1">
          <mxGeometry x="368.86000000000007" y="910" width="84.69" height="80" as="geometry" />
        </mxCell>
        <mxCell id="NdF2GG-0BhVtw3e28iFV-8" value="&lt;div&gt;&lt;font style=&quot;font-size: 10px;&quot; face=&quot;Verdana&quot;&gt;♂ &lt;b&gt;..&lt;/b&gt;&lt;/font&gt;&lt;/div&gt;&lt;br&gt;&lt;div&gt;&lt;font style=&quot;font-size: 10px;&quot; face=&quot;Verdana&quot;&gt;( -&amp;nbsp; &lt;/font&gt;&lt;font style=&quot;font-size: 10px;&quot; face=&quot;Verdana&quot;&gt;&lt;font style=&quot;font-size: 10px;&quot; size=&quot;3&quot;&gt;&lt;b&gt;†&lt;/b&gt;&lt;/font&gt;)&lt;/font&gt;&lt;/div&gt;&lt;div&gt;&lt;br&gt;&lt;/div&gt;" style="rounded=1;whiteSpace=wrap;html=1;fillStyle=auto;strokeColor=#00BFFF;fillColor=#87CEFA;gradientColor=none;fontFamily=Verdana;fontSize=10;fontColor=#000000;" vertex="1" parent="1">
          <mxGeometry x="485.59000000000003" y="910" width="85" height="80" as="geometry" />
        </mxCell>
        <mxCell id="NdF2GG-0BhVtw3e28iFV-9" value="" style="shape=umlActor;verticalLabelPosition=bottom;verticalAlign=top;html=1;outlineConnect=0;fillStyle=auto;fontFamily=Verdana;fontSize=10;fontColor=#000000;strokeColor=#FF1493;strokeWidth=2;fillColor=#FFC0CB;gradientColor=none;" vertex="1" parent="1">
          <mxGeometry x="368.86000000000007" y="1012" width="15.01" height="20" as="geometry" />
        </mxCell>
        <mxCell id="NdF2GG-0BhVtw3e28iFV-10" value="&lt;div align=&quot;center&quot;&gt;&lt;br&gt;&lt;/div&gt;" style="shape=umlActor;verticalLabelPosition=bottom;verticalAlign=top;html=1;outlineConnect=0;fillStyle=auto;fontFamily=Verdana;fontSize=10;fontColor=#000000;strokeColor=#00BFFF;strokeWidth=2;fillColor=#87CEFA;gradientColor=none;align=center;" vertex="1" parent="1">
          <mxGeometry x="391.52000000000004" y="1012" width="14.69" height="20" as="geometry" />
        </mxCell>
        <mxCell id="NdF2GG-0BhVtw3e28iFV-11" value="" style="shape=mxgraph.signs.transportation.ship_2;html=1;pointerEvents=1;fillColor=#ffcd28;strokeColor=#d79b00;verticalLabelPosition=bottom;verticalAlign=top;align=center;sketch=0;fontSize=9;gradientColor=#ffa500;" vertex="1" parent="1">
          <mxGeometry x="70" y="970" width="31.15" height="28" as="geometry" />
        </mxCell>
        <mxCell id="NdF2GG-0BhVtw3e28iFV-12" value="" style="line;strokeWidth=2;direction=south;html=1;fillStyle=auto;fontFamily=Verdana;fontSize=10;fillColor=#87CEFA;gradientColor=none;fontColor=#000000;" vertex="1" parent="1">
          <mxGeometry x="235.8299999999999" y="949" width="10" height="21" as="geometry" />
        </mxCell>
        <mxCell id="NdF2GG-0BhVtw3e28iFV-13" value="" style="strokeWidth=2;html=1;shape=mxgraph.flowchart.annotation_2;align=left;labelPosition=right;pointerEvents=1;fillStyle=auto;fontFamily=Verdana;fontSize=10;fillColor=#87CEFA;gradientColor=none;rotation=90;" vertex="1" parent="1">
          <mxGeometry x="320" y="998" width="19.52" height="160" as="geometry" />
        </mxCell>
        <mxCell id="NdF2GG-0BhVtw3e28iFV-14" value="..." style="text;html=1;strokeColor=none;fillColor=none;align=center;verticalAlign=middle;whiteSpace=wrap;rounded=0;fillStyle=auto;fontFamily=Verdana;fontSize=8;fontColor=#000000;rotation=-90;" vertex="1" parent="1">
          <mxGeometry x="180" y="1120" width="40" height="18" as="geometry" />
        </mxCell>
        <mxCell id="NdF2GG-0BhVtw3e28iFV-15" value="..." style="text;html=1;strokeColor=none;fillColor=none;align=center;verticalAlign=middle;whiteSpace=wrap;rounded=0;fillStyle=auto;fontFamily=Verdana;fontSize=8;fontColor=#000000;rotation=-90;" vertex="1" parent="1">
          <mxGeometry x="230" y="1110" width="40" height="18" as="geometry" />
        </mxCell>
      </root>
    </mxGraphModel>
  </diagram>
</mxfile>
